[IMG]http://s.chakpak.com/se_images/207606_-1_564_none/main-hoon-na-wallpaper.jpg[/IMG]

[IMG]http://i813.photobucket.com/albums/zz59/krishnlm143/logoo.png[/IMG]

[IMG]http://i813.photobucket.com/albums/zz59/krishnlm143/FileInfo.png[/IMG]

[code]
General

Format                           : Matroska
File size                        : 1.71 GiB
Duration                         : 2h 54mn
Overall bit rate                 : 1 404 Kbps
Encoded date                     : UTC 2010-11-15 03:44:46
Writing application              : mkvmerge v4.0.0 ('The Stars were mine') built on Jun  6 2010 16:18:42
Writing library                  : libebml v1.0.0 + libmatroska v1.0.0

Video
ID                               : 1
Format                           : MPEG-4 Visual
Format profile                   : Advanced Simple@L5
Format settings, BVOP            : Yes
Format settings, QPel            : No
Format settings, GMC             : No warppoints
Format settings, Matrix          : Default (H.263)
Codec ID                         : V_MPEG4/ISO/ASP
Codec ID/Info                    : Advanced Simple Profile
Duration                         : 2h 54mn
Bit rate                         : 992 Kbps
Width                            : 688 pixels
Height                           : 288 pixels
Display aspect ratio             : 2.35:1
Frame rate                       : 29.970 fps
Color space                      : YUV
Chroma subsampling               : 4:2:0
Bit depth                        : 8 bits
Scan type                        : Progressive
Bits/(Pixel*Frame)               : 0.167
Stream size                      : 1.21 GiB (71%)
Writing library                  : XviD 1.2.1 (UTC 2008-12-04)
Language                         : English

Audio
ID                               : 2
Format                           : AC-3
Format/Info                      : Audio Coding 3
Mode extension                   : CM (complete main)
Codec ID                         : A_AC3
Duration                         : 2h 54mn
Bit rate mode                    : Constant
Bit rate                         : 384 Kbps
Channel(s)                       : 6 channels
Channel positions                : Front: L C R, Side: L R, LFE
Sampling rate                    : 48.0 KHz
Bit depth                        : 16 bits
Video delay                      : 17ms
Stream size                      : 480 MiB (27%)
Language                         : Hindi
Ripper                           :Striker

[/code]


[IMG]http://i813.photobucket.com/albums/zz59/krishnlm143/screens.png[/IMG]


[IMG]http://imagehacks.in/image-6493_4CE0C9A3.jpg[/IMG]
[IMG]http://imagehacks.in/image-8EF7_4CE0C9A3.jpg[/IMG]
[IMG]http://imagehacks.in/image-5BFB_4CE0C9A3.jpg[/IMG]
[IMG]http://imagehacks.in/image-2EFA_4CE0C9A3.jpg[/IMG]
[IMG]http://imagehacks.in/image-EDFF_4CE0C9A3.jpg[/IMG]
[IMG]http://imagehacks.in/image-44EF_4CE0C9A3.jpg[/IMG]
[IMG]http://imagehacks.in/image-EFDD_4CE0C9A3.jpg[/IMG]


[IMG]http://i813.photobucket.com/albums/zz59/krishnlm143/Download-1.png[/IMG]